<?xml version="1.0" encoding="UTF-8"?>
<!-- Generated by Pixelmator Pro 3.4.3 -->
<svg width="122" height="120" viewBox="0 0 122 120" xmlns="http://www.w3.org/2000/svg">
    <g id="Group-copy">
        <linearGradient id="linearGradient1" x1="42.88" y1="14.3" x2="75.65" y2="14.3" gradientUnits="userSpaceOnUse">
            <stop offset="1e-05" stop-color="#e35930" stop-opacity="1"/>
            <stop offset="1" stop-color="#e84125" stop-opacity="1"/>
        </linearGradient>
        <path id="Path" fill="url(#linearGradient1)" stroke="none" d="M 75.650002 26.669998 C 71.010002 24.709999 65.910004 23.629997 60.549999 23.629997 C 55.189999 23.629997 50.09 24.709999 45.450001 26.669998 L 59.32 2.639999 C 59.860001 1.699997 61.220001 1.699997 61.759998 2.639999 L 75.639999 26.669998 Z"/>
        <linearGradient id="linearGradient2" x1="10.62" y1="38.4" x2="41.76" y2="38.4" gradientUnits="userSpaceOnUse">
            <stop offset="1e-05" stop-color="#e35930" stop-opacity="1"/>
            <stop offset="1" stop-color="#e84125" stop-opacity="1"/>
        </linearGradient>
        <path id="path1" fill="url(#linearGradient2)" stroke="none" d="M 41.759998 28.470001 C 32.620003 33.529999 25.75 42.169998 23.02 52.5 L 12.71 26.229996 C 12.31 25.220001 13.16 24.159996 14.23 24.32 L 41.759998 28.470001 Z"/>
        <linearGradient id="linearGradient3" x1="0.08" y1="71.23" x2="30" y2="71.23" gradientUnits="userSpaceOnUse">
            <stop offset="1e-05" stop-color="#e35930" stop-opacity="1"/>
            <stop offset="1" stop-color="#e84125" stop-opacity="1"/>
        </linearGradient>
        <path id="path2" fill="url(#linearGradient3)" stroke="none" d="M 30 86.389999 L 2 77.75 C 0.96 77.43 0.66 76.099998 1.45 75.370003 L 22.25 56.07 C 21.91 58.139999 21.73 60.27 21.73 62.439999 C 21.73 71.480003 24.82 79.800003 30 86.389999 Z"/>
        <linearGradient id="linearGradient4" x1="30.48" y1="102.93" x2="59.97" y2="102.93" gradientUnits="userSpaceOnUse">
            <stop offset="1e-05" stop-color="#e35930" stop-opacity="1"/>
            <stop offset="1" stop-color="#e84125" stop-opacity="1"/>
        </linearGradient>
        <path id="path3" fill="url(#linearGradient4)" stroke="none" d="M 59.970001 101.25 L 35.419998 117.980003 C 34.52 118.590004 33.299999 118.010002 33.220001 116.919998 L 31.030001 87.629997 C 38.029999 95.830002 48.389999 101.07 59.970001 101.239998 Z"/>
        <linearGradient id="linearGradient5" x1="60.1" y1="102.97" x2="89.98" y2="102.97" gradientUnits="userSpaceOnUse">
            <stop offset="1e-05" stop-color="#e35930" stop-opacity="1"/>
            <stop offset="1" stop-color="#e84125" stop-opacity="1"/>
        </linearGradient>
        <path id="path4" fill="url(#linearGradient5)" stroke="none" d="M 89.980003 87.75 L 87.800003 116.889999 C 87.720001 117.970001 86.5 118.559998 85.599998 117.949997 L 61.099998 101.25 C 72.650002 101.090004 82.980003 95.889999 89.980003 87.75 Z"/>
        <linearGradient id="linearGradient6" x1="89.37" y1="71.12" x2="120.07" y2="71.12" gradientUnits="userSpaceOnUse">
            <stop offset="1e-05" stop-color="#e35930" stop-opacity="1"/>
            <stop offset="1" stop-color="#e84125" stop-opacity="1"/>
        </linearGradient>
        <path id="path5" fill="url(#linearGradient6)" stroke="none" d="M 119.080002 77.660004 L 91.199997 86.260002 C 96.32 79.690002 99.370003 71.419998 99.370003 62.439999 C 99.370003 60.240002 99.18 58.080002 98.830002 55.979996 L 119.620003 75.269997 C 120.419998 76.010002 120.110001 77.340004 119.080002 77.650002 Z"/>
        <linearGradient id="linearGradient7" x1="76.95" y1="38.44" x2="108.49" y2="38.44" gradientUnits="userSpaceOnUse">
            <stop offset="1e-05" stop-color="#e35930" stop-opacity="1"/>
            <stop offset="1" stop-color="#e84125" stop-opacity="1"/>
        </linearGradient>
        <path id="path6" fill="url(#linearGradient7)" stroke="none" d="M 108.389999 26.279999 L 98.089996 52.540001 C 95.370003 42.220001 88.519997 33.589996 79.410004 28.510002 L 106.870003 24.370003 C 107.940002 24.209999 108.790001 25.269997 108.389999 26.279999 Z"/>
        <linearGradient id="linearGradient8" x1="65.124425" y1="110.676399" x2="57.344425" y2="124.151754" gradientUnits="userSpaceOnUse">
            <stop offset="1e-05" stop-color="#e35930" stop-opacity="1"/>
            <stop offset="1" stop-color="#e84125" stop-opacity="1"/>
        </linearGradient>
        <path id="path7" fill="url(#linearGradient8)" stroke="none" d="M 60.549999 109.629997 C 54.82 109.629997 50.18 114.269997 50.18 120 L 70.93 120 C 70.93 114.269997 66.290001 109.629997 60.560001 109.629997 Z"/>
        <linearGradient id="linearGradient9" x1="102.159491" y1="89.533127" x2="107.844559" y2="104.017381" gradientUnits="userSpaceOnUse">
            <stop offset="1e-05" stop-color="#e35930" stop-opacity="1"/>
            <stop offset="1" stop-color="#e84125" stop-opacity="1"/>
        </linearGradient>
        <path id="path8" fill="url(#linearGradient9)" stroke="none" d="M 98.470001 92.639999 C 94.900002 97.120003 95.629997 103.650002 100.110001 107.220001 L 113.040001 91 C 108.559998 87.43 102.029999 88.160004 98.459999 92.639999 Z"/>
        <linearGradient id="linearGradient10" x1="106.949491" y1="47.79228" x2="121.818432" y2="52.377929" gradientUnits="userSpaceOnUse">
            <stop offset="1e-05" stop-color="#e35930" stop-opacity="1"/>
            <stop offset="1" stop-color="#e84125" stop-opacity="1"/>
        </linearGradient>
        <path id="path9" fill="url(#linearGradient10)" stroke="none" d="M 106.970001 52.529999 C 108.239998 58.119999 113.809998 61.610001 119.389999 60.330002 L 114.769997 40.099998 C 109.18 41.369995 105.690002 46.939995 106.970001 52.519997 Z"/>
        <linearGradient id="linearGradient11" x1="77.838838" y1="17.87622" x2="90.694457" y2="9.109998" gradientUnits="userSpaceOnUse">
            <stop offset="1e-05" stop-color="#e35930" stop-opacity="1"/>
            <stop offset="1" stop-color="#e84125" stop-opacity="1"/>
        </linearGradient>
        <path id="path10" fill="url(#linearGradient11)" stroke="none" d="M 81.519997 20.800003 C 86.68 23.290001 92.879997 21.120003 95.370003 15.949997 L 76.68 6.949997 C 74.190002 12.110001 76.360001 18.309998 81.529999 20.800003 Z"/>
        <linearGradient id="linearGradient12" x1="34.734588" y1="21.918117" x2="35.895841" y2="6.40151" gradientUnits="userSpaceOnUse">
            <stop offset="1e-05" stop-color="#e35930" stop-opacity="1"/>
            <stop offset="1" stop-color="#e84125" stop-opacity="1"/>
        </linearGradient>
        <path id="path11" fill="url(#linearGradient12)" stroke="none" d="M 39.110001 20.800003 C 44.27 18.309998 46.439999 12.110001 43.950001 6.949997 L 25.26 15.949997 C 27.75 21.110001 33.950001 23.279999 39.110001 20.790001 Z"/>
        <linearGradient id="linearGradient13" x1="12.663468" y1="56.738477" x2="1.255862" y2="46.156411" gradientUnits="userSpaceOnUse">
            <stop offset="1e-05" stop-color="#e35930" stop-opacity="1"/>
            <stop offset="1" stop-color="#e84125" stop-opacity="1"/>
        </linearGradient>
        <path id="path12" fill="url(#linearGradient13)" stroke="none" d="M 14.4 52.529999 C 15.67 46.939995 12.18 41.379997 6.59 40.110001 L 1.98 60.34 C 7.57 61.610001 13.13 58.119999 14.4 52.529999 Z"/>
        <linearGradient id="linearGradient14" x1="26.398655" y1="96.69931" x2="11.012795" y2="99.020709" gradientUnits="userSpaceOnUse">
            <stop offset="1e-05" stop-color="#e35930" stop-opacity="1"/>
            <stop offset="1" stop-color="#e84125" stop-opacity="1"/>
        </linearGradient>
        <path id="path13" fill="url(#linearGradient14)" stroke="none" d="M 9.5 91 L 22.440001 107.220001 C 26.92 103.650002 27.65 97.120003 24.08 92.639999 C 20.51 88.160004 13.98 87.43 9.5 91 Z"/>
    </g>
</svg>
